<svg xmlns="http://www.w3.org/2000/svg" viewBox="0 0 42.82 42"><defs><style>.cls-1{fill:#fff;}</style></defs><g id="Capa_2" data-name="Capa 2"><g id="Capa_1-2" data-name="Capa 1"><path class="cls-1" d="M42.82,19.82v2.56c0,.12-.06.24-.08.36a29.18,29.18,0,0,1-.48,3.09c-2,7.78-6.93,13-14.66,15.48-.9.3-1.85.46-2.82.69V27.19h5l1-6.08H24.77c0-1.51-.07-3,0-4.42a2.86,2.86,0,0,1,3-2.81c.9,0,1.81,0,2.71,0l.44,0V8.69s-.06,0-.09,0a24,24,0,0,0-5.74-.34,7.27,7.27,0,0,0-5.28,2.57,8.28,8.28,0,0,0-1.74,5.23c0,1.51,0,3,0,4.53v.48h-5.4v6.1H18V41.92H17.9l-.25,0a21,21,0,0,1-9.53-4.24A20.71,20.71,0,0,1,.32,24.7C.19,23.93.11,23.15,0,22.38V19.82c0-.13.05-.26.07-.39.15-1,.24-1.94.44-2.89A21.5,21.5,0,0,1,34.73,4.59a20.65,20.65,0,0,1,7.76,12.88C42.63,18.25,42.71,19,42.82,19.82Z"/></g></g></svg>