<svg xmlns="http://www.w3.org/2000/svg" viewBox="0 0 37.11 36.71"><defs><style>.cls-1{fill:#fff;}</style></defs><g id="Capa_2" data-name="Capa 2"><g id="Capa_1-2" data-name="Capa 1"><path class="cls-1" d="M0,18.41c0-2.62,0-5.23,0-7.85C.17,4.63,3.48.66,9.36.29A144.47,144.47,0,0,1,27.5.28c5.67.34,9.22,4.24,9.45,9.91.21,5.45.21,10.91,0,16.35-.23,6.12-4.12,9.87-10.34,10.05-5.5.16-11,.17-16.52,0C4,36.32.2,32.35,0,26.26,0,23.64,0,21,0,18.41Zm3.39-.27c0,2.73-.1,5.46,0,8.17.21,4.38,2.69,6.82,7.14,6.91q7.93.16,15.86,0c4.36-.1,7.07-2.61,7.23-6.9.19-5.33.2-10.69,0-16-.17-4.21-2.73-6.58-7-6.7q-8.09-.23-16.18,0c-4.51.13-6.83,2.56-7,7C3.32,13.12,3.4,15.63,3.41,18.14Z"/><path class="cls-1" d="M27.94,18.43a9.55,9.55,0,0,1-9.49,9.38,9.68,9.68,0,0,1-9.52-9.74A9.5,9.5,0,0,1,18.64,9,9.4,9.4,0,0,1,27.94,18.43Zm-3.4,0a6.12,6.12,0,0,0-5.95-6.15,6,6,0,0,0-6.14,5.92,5.94,5.94,0,0,0,5.91,6.13A6.06,6.06,0,0,0,24.54,18.43Z"/><path class="cls-1" d="M31.26,8.78c-1.34.88-2.22,1.91-2.94,1.81a2.72,2.72,0,0,1-1.79-2,2.71,2.71,0,0,1,2-1.82C29.24,6.7,30,7.79,31.26,8.78Z"/></g></g></svg>