<svg xmlns="http://www.w3.org/2000/svg" viewBox="0 0 42.98 36.2"><defs><style>.cls-1{fill:#fff;}</style></defs><g id="Capa_2" data-name="Capa 2"><g id="Capa_1-2" data-name="Capa 1"><path class="cls-1" d="M43,4.29a17.31,17.31,0,0,1-5.06,1.43,9.11,9.11,0,0,0,3.87-5,17.19,17.19,0,0,1-5.6,2.22A8.64,8.64,0,0,0,29.76,0a9,9,0,0,0-8.82,9.14,9.54,9.54,0,0,0,.23,2.08A24.76,24.76,0,0,1,3,1.67,9.34,9.34,0,0,0,1.8,6.27a9.22,9.22,0,0,0,3.92,7.6,8.52,8.52,0,0,1-4-1.14v.12a9.08,9.08,0,0,0,7.07,9,8.9,8.9,0,0,1-2.32.32A8.27,8.27,0,0,1,4.82,22a8.87,8.87,0,0,0,8.23,6.35,17.27,17.27,0,0,1-11,3.91A16.22,16.22,0,0,1,0,32.09,24.28,24.28,0,0,0,13.52,36.2c16.22,0,25.09-13.93,25.09-26,0-.4,0-.79,0-1.19A18.17,18.17,0,0,0,43,4.29Z"/></g></g></svg>